<?xml version="1.0" encoding="UTF-8" standalone="no"?>
<svg
   version="1.1"
   width="576pt"
   height="576pt"
   id="svg6"
   viewBox="0 0 576 576"
   sodipodi:docname="CALYX LOGO.cdr"
   xmlns:inkscape="http://www.inkscape.org/namespaces/inkscape"
   xmlns:sodipodi="http://sodipodi.sourceforge.net/DTD/sodipodi-0.dtd"
   xmlns="http://www.w3.org/2000/svg"
   xmlns:svg="http://www.w3.org/2000/svg">
  <defs
     id="defs6" />
  <sodipodi:namedview
     id="namedview6"
     pagecolor="#ffffff"
     bordercolor="#000000"
     borderopacity="0.25"
     inkscape:showpageshadow="2"
     inkscape:pageopacity="0.0"
     inkscape:pagecheckerboard="0"
     inkscape:deskcolor="#d1d1d1"
     inkscape:document-units="pt" />
  <path
     d="M 0,0 V 576 H 576 V 0 Z"
     style="fill:none"
     id="path1" />
  <g
     id="Layer1000">
    <g
       id="Layer1001">
      <path
         d="m 309.4775,279.1046 c 7.2808,-3.714 13.3456,-9.1868 17.7571,-15.7677 5.1035,-7.613 7.994,-16.7173 7.994,-26.3021 0,-9.5097 -2.8483,-18.5531 -7.8863,-26.1374 -4.4197,-6.6544 -10.5233,-12.1885 -17.865,-15.9344 -0.2129,-1.702 -0.6237,-3.3429 -1.2082,-4.8986 9.2968,4.011 16.9736,10.5747 22.3478,18.665 5.4601,8.2205 8.5476,18.0139 8.5476,28.3054 0,10.3671 -3.1351,20.2277 -8.6709,28.4853 -5.3705,8.0116 -13.0034,14.5077 -22.2247,18.4853 0.5847,-1.5562 0.9958,-3.1977 1.2086,-4.9008 z m -6.6429,13.0501 c 9.7976,-2.6302 18.5541,-7.8026 25.5188,-14.767 10.3269,-10.3269 16.7145,-24.5943 16.7145,-40.3529 0,-15.7592 -6.3876,-30.0266 -16.7145,-40.3535 -6.9644,-6.9644 -15.7212,-12.1368 -25.5188,-14.7671 -3.8092,-3.5861 -8.919,-5.8079 -14.5463,-5.8813 16.7312,0.0777 31.8713,6.8896 42.8476,17.8659 11.0396,11.0396 17.8679,26.2905 17.8679,43.136 0,16.8451 -6.8283,32.0961 -17.8679,43.1353 -10.9766,10.9764 -26.1164,17.7883 -42.8476,17.866 5.6273,-0.0735 10.7371,-2.295 14.5463,-5.8814 z M 288,254.7448 c 4.8909,0 9.3189,-1.9823 12.5235,-5.1871 3.2045,-3.2046 5.1871,-7.6326 5.1871,-12.5235 0,-4.8909 -1.9826,-9.3186 -5.1871,-12.5235 -3.2046,-3.2045 -7.6326,-5.1871 -12.5235,-5.1871 3.2227,0 6.2807,-0.7047 9.0289,-1.9678 2.3491,1.0797 4.472,2.5673 6.2771,4.3725 3.9171,3.9169 6.3402,9.3288 6.3402,15.3059 0,5.9774 -2.4231,11.389 -6.3402,15.3062 -1.8051,1.8051 -3.928,3.2928 -6.2771,4.3725 -2.7482,-1.2631 -5.8062,-1.9681 -9.0289,-1.9681 z m 14.5984,5.6645 c 3.8818,-2.4239 7.0385,-5.7408 9.2662,-9.5996 2.3746,-4.113 3.6856,-8.8475 3.6856,-13.7749 0,-4.9303 -1.3099,-9.6653 -3.6822,-13.777 l -0.003,0.002 c -2.2249,-3.8537 -5.3821,-7.1696 -9.2693,-9.5969 0.2421,-0.2212 0.4791,-0.4474 0.7107,-0.6789 0.708,-0.7081 1.3671,-1.465 1.972,-2.2655 4.1638,2.7326 7.5592,6.3734 9.9845,10.5735 l -0.003,0.002 0.003,0.006 c 2.721,4.7134 4.2236,10.1225 4.2236,15.7354 0,5.618 -1.5026,11.0293 -4.2239,15.7427 -2.4222,4.1956 -5.8184,7.835 -9.9867,10.5702 -0.6044,-0.7991 -1.2626,-1.5551 -1.9695,-2.2624 -0.2308,-0.2307 -0.4669,-0.4558 -0.7076,-0.676 z m 5.5724,8.1124 c 5.1117,-3.2734 9.269,-7.6824 12.2147,-12.7848 3.2239,-5.5842 5.004,-12.0121 5.004,-18.7021 0,-6.8094 -1.8476,-13.3458 -5.1828,-18.9992 -2.9401,-4.9833 -7.0345,-9.2849 -12.0365,-12.4872 0.491,-1.2569 0.8674,-2.571 1.1174,-3.9294 5.9857,3.5972 10.8607,8.5859 14.3014,14.4181 3.6913,6.2569 5.7362,13.481 5.7362,20.9977 0,7.3703 -1.9712,14.47 -5.5421,20.6546 -3.4528,5.9808 -8.3967,11.0948 -14.4955,14.76 -0.25,-1.3578 -0.6262,-2.6714 -1.1168,-3.9277 z"
         style="fill:#edd3a1;fill-rule:evenodd"
         id="path2" />
      <path
         d="m 288.0592,288.1984 -0.0592,9e-4 c -14.1284,0 -26.9198,-5.7271 -36.1786,-14.9859 -9.2591,-9.2594 -14.9859,-22.0505 -14.9859,-36.1786 0,-14.1285 5.7271,-26.9198 14.9859,-36.1786 9.2588,-9.2588 22.0502,-14.9859 36.1786,-14.9859 3.2598,0 6.2118,1.3215 8.3486,3.4582 2.1368,2.1365 3.4585,5.0888 3.4585,8.3486 0,3.2604 -1.3215,6.2122 -3.4585,8.3492 -2.1365,2.1365 -5.0885,3.4586 -8.3486,3.4586 l -0.0323,-3e-4 c -7.5949,0.009 -14.4706,3.0909 -19.4488,8.0691 -4.9853,4.9853 -8.0691,11.8732 -8.0691,19.4811 0,7.6076 3.0838,14.4955 8.0691,19.4808 4.9853,4.9853 11.8735,8.0691 19.4811,8.0691 3.2601,0 6.2121,1.3218 8.3489,3.4583 2.1367,2.1367 3.4582,5.0887 3.4582,8.3486 0,3.2601 -1.3217,6.2121 -3.4585,8.3486 -2.1234,2.1234 -5.0528,3.4424 -8.2894,3.4582 z M 288,298.038 c -16.8454,0 -32.0961,-6.8283 -43.1359,-17.8679 -11.0396,-11.0392 -17.8679,-26.2902 -17.8679,-43.1353 0,-16.8455 6.8283,-32.0964 17.8679,-43.136 11.0395,-11.0395 26.2905,-17.8679 43.1359,-17.8679 5.9771,0 11.389,2.4234 15.306,6.3403 3.9171,3.9175 6.3402,9.3288 6.3402,15.3059 0,5.9775 -2.4231,11.3891 -6.3402,15.3066 -3.917,3.9169 -9.3289,6.3399 -15.306,6.3399 v 3e-4 c -4.8909,0 -9.3189,1.9823 -12.5235,5.1868 -3.2045,3.2049 -5.1871,7.6326 -5.1871,12.5235 0,4.8909 1.9826,9.3189 5.1871,12.5235 3.2046,3.2048 7.6326,5.1871 12.5235,5.1871 5.9771,0 11.3888,2.423 15.306,6.3405 3.9171,3.9175 6.3402,9.3291 6.3402,15.3063 0,5.9771 -2.4231,11.3887 -6.3402,15.3062 -3.917,3.9172 -9.3289,6.3402 -15.306,6.3402 z m 0,-118.0714 c -15.7589,0 -30.0266,6.3878 -40.3534,16.7147 -10.3269,10.3269 -16.7145,24.5943 -16.7145,40.3535 0,15.7586 6.3876,30.026 16.7145,40.3529 10.3271,10.3269 24.5945,16.7147 40.3534,16.7147 4.8909,0 9.3189,-1.9825 12.5235,-5.1871 3.2045,-3.2048 5.1871,-7.6328 5.1871,-12.5237 0,-4.8909 -1.9826,-9.3189 -5.1874,-12.5238 -3.2046,-3.2048 -7.6326,-5.1871 -12.5232,-5.1871 -5.9771,0 -11.389,-2.4233 -15.306,-6.3403 -3.9171,-3.9172 -6.3402,-9.3288 -6.3402,-15.3062 0,-5.9771 2.4231,-11.389 6.3402,-15.3059 3.917,-3.917 9.3289,-6.34 15.306,-6.34 v -3e-4 c 4.8909,0 9.3189,-1.9823 12.5235,-5.1868 3.2045,-3.2049 5.1871,-7.6332 5.1871,-12.5241 0,-4.8906 -1.9826,-9.3186 -5.1871,-12.5234 -3.2046,-3.2046 -7.6326,-5.1871 -12.5235,-5.1871 z m 0,88.5537 c -8.6941,0 -16.5657,-3.5243 -22.2636,-9.2222 -5.6979,-5.6977 -9.2225,-13.5695 -9.2225,-22.2633 0,-8.6942 3.5246,-16.566 9.2225,-22.2636 5.6976,-5.6979 13.5695,-9.2223 22.2636,-9.2223 v -2e-4 c 2.1736,0 4.142,-0.8808 5.5661,-2.3049 1.4241,-1.4241 2.3054,-3.3925 2.3054,-5.5667 0,-2.1739 -0.881,-4.142 -2.3054,-5.5661 -1.4241,-1.4241 -3.3922,-2.3051 -5.5661,-2.3051 -13.0422,0 -24.8496,5.2863 -33.3961,13.8328 -8.5465,8.5464 -13.8325,20.3539 -13.8325,33.3961 0,13.0419 5.286,24.8496 13.8325,33.3961 8.5465,8.5461 20.3539,13.8322 33.3961,13.8322 2.1736,0 4.142,-0.8813 5.5661,-2.3054 1.4244,-1.4242 2.3054,-3.3923 2.3054,-5.5661 0,-2.1739 -0.881,-4.142 -2.3051,-5.5662 -1.4244,-1.4241 -3.3928,-2.3051 -5.5664,-2.3051 z m 0,-49.1964 v -3e-4 z m 0,-13.7752 v 2e-4 z m 0,68.875 c 1.0865,0 1.9678,0.8813 1.9678,1.9679 0,1.0868 -0.8813,1.9678 -1.9678,1.9678 -11.4111,0 -21.7429,-4.6256 -29.2212,-12.104 -7.4784,-7.478 -12.104,-17.8098 -12.104,-29.2206 0,-11.4115 4.6259,-21.7429 12.1043,-29.2213 7.478,-7.4783 17.8098,-12.1042 29.2209,-12.1042 1.0865,0 1.9678,0.8813 1.9678,1.9678 0,1.0868 -0.8813,1.9681 -1.9678,1.9681 -10.3249,0 -19.6724,4.1848 -26.4385,10.9508 -6.766,6.766 -10.951,16.1139 -10.951,26.4388 0,10.3249 4.185,19.6724 10.9508,26.4381 6.766,6.7661 16.1135,10.9508 26.4387,10.9508 z"
         style="fill:#d0a858;fill-rule:evenodd"
         id="path3" />
      <path
         d="m 169.8058,386.7419 v 4.0369 h 1.8191 c 0.5539,0 1.0585,-0.2275 1.4247,-0.5937 0.3662,-0.3662 0.5937,-0.8708 0.5937,-1.4248 0,-0.5539 -0.2275,-1.0585 -0.5937,-1.4247 -0.3662,-0.3662 -0.8708,-0.5937 -1.4247,-0.5937 z m 4.59,4.7064 c -0.6874,0.6873 -1.6376,1.1124 -2.6879,1.1124 h -1.9021 v 3.548 c 0,0.2551 -0.1025,0.4774 -0.27,0.6382 -0.1655,0.159 -0.3904,0.2527 -0.6376,0.2527 -0.2499,0 -0.476,-0.1004 -0.6409,-0.2647 l -10e-4,-10e-4 -0.001,-9e-4 c -0.1643,-0.1652 -0.2647,-0.3913 -0.2647,-0.641 v -10.2244 c 0,-0.2523 0.1008,-0.479 0.2647,-0.6429 0.1639,-0.1639 0.3906,-0.2647 0.6429,-0.2647 h 2.8097 c 1.0503,0 2.0005,0.4251 2.6879,1.1124 v 0.002 c 0.6874,0.6876 1.1125,1.6371 1.1125,2.6859 0,1.0503 -0.4251,2.0006 -1.1125,2.688 z m 20.5516,-5.3739 c 0.6874,0.6876 1.1124,1.6371 1.1124,2.6859 0,0.8651 -0.2839,1.6574 -0.7645,2.2936 -0.344,0.4554 -0.7889,0.8302 -1.3021,1.0939 l 0.5598,0.6231 v 0.002 c 0.8616,0.9643 1.6247,1.5733 2.3436,1.9376 0.6923,0.3507 1.3527,0.474 2.0296,0.474 0.2523,0 0.479,0.1008 0.6429,0.2647 l -0.001,10e-4 c 0.1649,0.1651 0.2657,0.3916 0.2657,0.6419 0,0.2499 -0.1004,0.476 -0.2647,0.641 l -0.001,9e-4 -9e-4,0.001 c -0.1651,0.1643 -0.3913,0.2647 -0.641,0.2647 -1.3686,0 -2.4561,-0.3473 -3.3896,-0.9044 -0.9155,-0.5461 -1.6635,-1.2835 -2.3805,-2.0872 v -0.002 l -1.2815,-1.4454 h -1.5172 v 3.548 c 0,0.2551 -0.1026,0.4774 -0.27,0.6382 -0.1655,0.159 -0.3905,0.2527 -0.6376,0.2527 -0.2499,0 -0.476,-0.1004 -0.641,-0.2647 l -9e-4,-10e-4 -10e-4,-9e-4 c -0.1643,-0.1652 -0.2647,-0.3913 -0.2647,-0.641 v -10.2244 c 0,-0.2523 0.1008,-0.479 0.2647,-0.6429 0.1639,-0.1639 0.3906,-0.2647 0.6429,-0.2647 h 2.8097 c 1.0502,0 2.0005,0.4251 2.6879,1.1124 z m -4.59,0.6675 v 4.0369 h 1.8191 c 0.5539,0 1.0585,-0.2275 1.4247,-0.5937 0.3662,-0.3662 0.5937,-0.8708 0.5937,-1.4248 0,-0.5539 -0.2275,-1.0585 -0.5937,-1.4247 -0.3662,-0.3662 -0.8708,-0.5937 -1.4247,-0.5937 z m 22.9785,8.5427 c -1.1114,-1.1114 -1.7982,-2.6478 -1.7982,-4.3462 0,-1.6987 0.6868,-3.235 1.7982,-4.3464 1.1115,-1.1115 2.6478,-1.7983 4.3462,-1.7983 1.6985,0 3.2348,0.6868 4.3463,1.7983 1.1114,1.1114 1.7982,2.6477 1.7982,4.3464 0,1.6984 -0.6868,3.2348 -1.7982,4.3462 -1.1115,1.1115 -2.6478,1.7982 -4.3463,1.7982 -1.6984,0 -3.2347,-0.6867 -4.3462,-1.7982 z m 1.286,-7.4064 c -0.7836,0.7836 -1.2691,1.8661 -1.2691,3.0602 0,1.1941 0.4855,2.2766 1.2691,3.0602 l -0.001,10e-4 c 0.7838,0.783 1.8665,1.2681 3.0612,1.2681 1.1941,0 2.2767,-0.4855 3.0603,-1.2691 0.7836,-0.7836 1.269,-1.8661 1.269,-3.0602 0,-1.1941 -0.4854,-2.2766 -1.269,-3.0602 -0.7836,-0.7836 -1.8662,-1.2691 -3.0603,-1.2691 -1.1941,0 -2.2766,0.4855 -3.0602,1.2691 z m 26.305,3.5521 h -2.2512 v 4.6784 c 0,0.2551 -0.1025,0.4774 -0.27,0.6382 -0.1655,0.159 -0.3904,0.2527 -0.6376,0.2527 -0.2499,0 -0.476,-0.1004 -0.6409,-0.2647 l -10e-4,-10e-4 -0.001,-9e-4 c -0.1643,-0.1652 -0.2647,-0.3913 -0.2647,-0.641 v -10.2244 c 0,-0.2523 0.1008,-0.479 0.2647,-0.6429 0.1639,-0.1639 0.3906,-0.2647 0.6429,-0.2647 h 4.8213 c 0.2469,0 0.4723,0.0943 0.6378,0.2527 0.1674,0.1612 0.27,0.3835 0.27,0.6384 0,0.255 -0.1026,0.4774 -0.27,0.6381 -0.1655,0.159 -0.3909,0.2527 -0.6378,0.2527 h -3.9137 v 2.9063 h 2.2512 c 0.2468,0 0.4721,0.0943 0.6376,0.2527 0.1675,0.1612 0.27,0.3832 0.27,0.6384 0,0.2554 -0.1027,0.4774 -0.27,0.6384 -0.1655,0.1584 -0.3908,0.2526 -0.6376,0.2526 z m 16.7542,0 v 3.7044 h 3.9137 c 0.2472,0 0.4713,0.0934 0.6358,0.2507 l 0.002,0.002 c 0.1675,0.1612 0.27,0.3832 0.27,0.6382 0,0.255 -0.1027,0.4774 -0.27,0.6384 -0.1655,0.1584 -0.3908,0.2527 -0.6378,0.2527 h -4.8213 c -0.2499,0 -0.476,-0.1004 -0.6409,-0.2647 l -0.001,-10e-4 -10e-4,-0.001 c -0.1643,-0.1651 -0.2646,-0.3912 -0.2646,-0.6409 v -10.1414 c 0,-0.2523 0.1007,-0.479 0.2646,-0.6429 0.164,-0.1639 0.3907,-0.2647 0.6429,-0.2647 h 4.8213 c 0.247,0 0.4723,0.0943 0.6378,0.2527 0.1675,0.1612 0.27,0.3835 0.27,0.6384 0,0.255 -0.1025,0.4774 -0.27,0.6381 -0.1655,0.159 -0.3908,0.2527 -0.6378,0.2527 h -3.9137 v 2.9063 h 2.2513 c 0.2467,0 0.4721,0.0943 0.6375,0.2527 0.1675,0.1612 0.27,0.3832 0.27,0.6384 0,0.2554 -0.1027,0.4774 -0.27,0.6384 -0.1654,0.1584 -0.3908,0.2526 -0.6375,0.2526 z m 18.2313,5.2668 c -0.4428,-0.2196 -0.8348,-0.5236 -1.1488,-0.8768 l -0.0156,-0.0174 -0.0151,-0.021 c -0.1378,-0.1895 -0.2043,-0.4207 -0.185,-0.6445 h 2e-4 c 0.0197,-0.2275 0.1234,-0.4445 0.3211,-0.6063 l 0.0116,-0.008 0.0207,-0.0159 0.0114,-0.008 c 0.1864,-0.1358 0.4089,-0.1952 0.6195,-0.1777 0.2267,0.0189 0.4436,0.123 0.5978,0.3115 l 0.006,0.009 c 0.1632,0.1736 0.3631,0.3231 0.5861,0.4312 0.2109,0.1023 0.4414,0.1672 0.6779,0.1796 h 0.008 l 0.014,0.001 h 0.002 c 0.5146,0.0376 0.9812,-0.0882 1.3234,-0.355 0.333,-0.2598 0.5565,-0.6642 0.5976,-1.1913 l 0.001,-0.0128 h 2e-4 c 0.0705,-1.0517 -0.9005,-1.597 -1.9216,-2.17 -1.421,-0.798 -2.9197,-1.6396 -2.7668,-3.8112 v -0.002 c 0.0691,-0.9578 0.4569,-1.7284 1.1138,-2.242 0.6285,-0.4916 1.4901,-0.7319 2.5364,-0.6573 v 4e-4 c 0.462,0.0289 0.8926,0.1494 1.2795,0.3412 0.4073,0.2019 0.7669,0.4839 1.0644,0.8212 l 0.0136,0.0134 c 0.1549,0.1893 0.2239,0.4182 0.2113,0.6406 -0.0133,0.2314 -0.1139,0.4531 -0.2965,0.6177 l -0.0164,0.0145 -0.022,0.0164 -0.007,0.005 -0.002,0.002 c -0.1952,0.1417 -0.4264,0.2043 -0.645,0.187 v -2e-4 c -0.2314,-0.0185 -0.4479,-0.1232 -0.6028,-0.3141 -0.1454,-0.157 -0.3164,-0.2871 -0.5073,-0.3813 -0.1838,-0.0908 -0.3896,-0.1498 -0.6116,-0.1687 v -6e-4 c -0.4847,-0.0258 -0.9184,0.0681 -1.2185,0.2879 -0.2462,0.1803 -0.407,0.4607 -0.4292,0.8456 v 0.01 c -0.087,1.1199 0.9001,1.6776 1.9324,2.2606 1.4161,0.7996 2.9009,1.6387 2.7393,3.8222 h -2e-4 l -10e-4,0.0205 v 0.004 c -0.0826,1.0847 -0.5641,1.9242 -1.2785,2.477 -0.7035,0.5443 -1.627,0.8009 -2.6098,0.732 h -0.002 l -0.0244,-0.002 v -4e-4 c -0.4853,-0.0291 -0.9466,-0.1607 -1.3614,-0.3666 z m 18.3737,0 c -0.4427,-0.2196 -0.8347,-0.5236 -1.1488,-0.8768 l -0.0155,-0.0174 -0.0152,-0.021 c -0.1377,-0.1895 -0.2043,-0.4207 -0.185,-0.6445 h 2e-4 c 0.0197,-0.2275 0.1234,-0.4445 0.3212,-0.6063 l 0.0116,-0.008 0.0207,-0.0159 0.0114,-0.008 c 0.1863,-0.1358 0.4089,-0.1952 0.6194,-0.1777 0.2267,0.0189 0.4436,0.123 0.5979,0.3115 l 0.006,0.009 c 0.1631,0.1736 0.3631,0.3231 0.586,0.4312 0.211,0.1023 0.4414,0.1672 0.678,0.1796 h 0.008 l 0.014,0.001 h 0.002 c 0.5146,0.0376 0.9811,-0.0882 1.3234,-0.355 0.3329,-0.2598 0.5565,-0.6642 0.5976,-1.1913 l 0.001,-0.0128 h 2e-4 c 0.0704,-1.0517 -0.9005,-1.597 -1.9216,-2.17 -1.421,-0.798 -2.9198,-1.6396 -2.7669,-3.8112 v -0.002 c 0.0691,-0.9578 0.457,-1.7284 1.1139,-2.242 0.6285,-0.4916 1.49,-0.7319 2.5363,-0.6573 v 4e-4 c 0.4621,0.0289 0.8927,0.1494 1.2795,0.3412 0.4074,0.2019 0.7669,0.4839 1.0645,0.8212 l 0.0135,0.0134 c 0.1549,0.1893 0.224,0.4182 0.2114,0.6406 -0.0134,0.2314 -0.114,0.4531 -0.2966,0.6177 l -0.0163,0.0145 -0.0221,0.0164 -0.007,0.005 -0.002,0.002 c -0.1952,0.1417 -0.4264,0.2043 -0.6451,0.187 v -2e-4 c -0.2314,-0.0185 -0.4479,-0.1232 -0.6027,-0.3141 -0.1455,-0.157 -0.3165,-0.2871 -0.5073,-0.3813 -0.1838,-0.0908 -0.3897,-0.1498 -0.6117,-0.1687 v -6e-4 c -0.4846,-0.0258 -0.9184,0.0681 -1.2185,0.2879 -0.2461,0.1803 -0.4069,0.4607 -0.4292,0.8456 v 0.01 c -0.0869,1.1199 0.9001,1.6776 1.9325,2.2606 1.4161,0.7996 2.9008,1.6387 2.7393,3.8222 h -2e-4 l -10e-4,0.0205 v 0.004 c -0.0827,1.0847 -0.5642,1.9242 -1.2785,2.477 -0.7035,0.5443 -1.6271,0.8009 -2.6098,0.732 h -0.002 l -0.0244,-0.002 v -4e-4 c -0.4853,-0.0291 -0.9465,-0.1607 -1.3614,-0.3666 z m 19.5484,-11.5537 c 0.1641,0.1645 0.2645,0.3906 0.2645,0.6411 v 10.3075 c 0,0.2523 -0.1004,0.479 -0.2645,0.6431 -0.1641,0.1641 -0.3908,0.2645 -0.6431,0.2645 -0.2499,0 -0.476,-0.1004 -0.6409,-0.2647 l -10e-4,-10e-4 -0.001,-9e-4 c -0.1643,-0.1652 -0.2647,-0.3913 -0.2647,-0.641 v -10.3075 c 0,-0.2499 0.1004,-0.476 0.2647,-0.6409 l 0.001,-10e-4 10e-4,-0.001 c 0.1651,-0.1643 0.3912,-0.2646 0.6409,-0.2646 0.2523,0 0.479,0.1003 0.6431,0.2644 z m 15.0969,10.1412 c -1.1115,-1.1114 -1.7983,-2.6478 -1.7983,-4.3462 0,-1.6987 0.6868,-3.235 1.7983,-4.3464 1.1114,-1.1115 2.6477,-1.7983 4.3462,-1.7983 1.6985,0 3.2348,0.6868 4.3462,1.7983 1.1115,1.1114 1.7982,2.6477 1.7982,4.3464 0,1.6984 -0.6867,3.2348 -1.7982,4.3462 -1.1114,1.1115 -2.6477,1.7982 -4.3462,1.7982 -1.6985,0 -3.2348,-0.6867 -4.3462,-1.7982 z m 1.286,-7.4064 c -0.7836,0.7836 -1.2691,1.8661 -1.2691,3.0602 0,1.1941 0.4855,2.2766 1.2691,3.0602 l -10e-4,10e-4 c 0.7838,0.783 1.8665,1.2681 3.0612,1.2681 1.1941,0 2.2766,-0.4855 3.0602,-1.2691 0.7836,-0.7836 1.2691,-1.8661 1.2691,-3.0602 0,-1.1941 -0.4855,-2.2766 -1.2691,-3.0602 -0.7836,-0.7836 -1.8661,-1.2691 -3.0602,-1.2691 -1.1941,0 -2.2766,0.4855 -3.0602,1.2691 z m 33.1817,9.0161 c -0.1134,-0.0604 -0.2088,-0.1403 -0.3251,-0.2568 l -8.8028,-8.6814 v 8.1359 c 0,0.2523 -0.1004,0.479 -0.2645,0.6431 -0.1641,0.1641 -0.3908,0.2645 -0.6431,0.2645 -0.2499,0 -0.476,-0.1004 -0.641,-0.2647 l -9e-4,-10e-4 -10e-4,-9e-4 c -0.1643,-0.1652 -0.2647,-0.3913 -0.2647,-0.641 v -10.3075 c 0,-0.2499 0.1004,-0.476 0.2647,-0.6409 l 10e-4,-10e-4 9e-4,-0.001 c 0.1651,-0.1643 0.3913,-0.2646 0.641,-0.2646 0.1641,0 0.2952,0.0287 0.4384,0.1052 0.1173,0.0626 0.2118,0.1415 0.3251,0.2549 l -10e-4,10e-4 8.8039,8.6824 v -8.136 c 0,-0.2505 0.1003,-0.4766 0.2644,-0.6411 l 0.002,-0.002 c 0.1645,-0.1641 0.3906,-0.2644 0.6411,-0.2644 0.2499,0 0.4761,0.1003 0.641,0.2646 l 9e-4,0.001 10e-4,10e-4 c 0.1643,0.1651 0.2647,0.3912 0.2647,0.6409 v 10.3075 c 0,0.2499 -0.1004,0.476 -0.2647,0.641 l -10e-4,9e-4 -9e-4,10e-4 c -0.1651,0.1643 -0.3912,0.2647 -0.641,0.2647 -0.1637,0 -0.2948,-0.0287 -0.4384,-0.1053 z m 14.0574,0.0124 c -0.2192,-0.1179 -0.3737,-0.3015 -0.449,-0.5146 v -0.002 c -0.0764,-0.217 -0.0691,-0.4585 0.0362,-0.6865 l 0.004,-0.006 4.9199,-10.2554 -8e-4,-4e-4 c 0.1108,-0.2334 0.2759,-0.3872 0.4528,-0.4866 l 8e-4,0.002 c 0.2373,-0.1339 0.4856,-0.1634 0.6387,-0.1634 0.1531,0 0.4015,0.0297 0.639,0.1634 l 8e-4,-0.002 c 0.1773,0.0996 0.3424,0.2536 0.4526,0.4866 l -8e-4,4e-4 4.9199,10.2554 0.004,0.006 c 0.1053,0.228 0.1126,0.4695 0.0362,0.6865 v 0.002 c -0.0754,0.2131 -0.2296,0.3965 -0.4491,0.5146 l -0.0269,0.0136 c -0.2299,0.1061 -0.4713,0.1074 -0.6842,0.0303 -0.2161,-0.0785 -0.4003,-0.2403 -0.5083,-0.4565 l -0.004,-0.006 -1.4946,-3.0962 h -5.7694 l -1.4946,3.0962 -0.004,0.006 c -0.108,0.2162 -0.292,0.3778 -0.5083,0.4565 -0.2129,0.0771 -0.4542,0.076 -0.6842,-0.0303 z m 5.6025,-9.4949 -2.0271,4.1982 h 4.0542 z m 19.8591,-2.2822 c 0.1675,0.1608 0.27,0.3834 0.27,0.6382 v 9.3669 h 3.9137 c 0.2472,0 0.4713,0.0934 0.6358,0.2507 l 0.002,0.002 c 0.1675,0.1612 0.27,0.3832 0.27,0.6382 0,0.255 -0.1027,0.4774 -0.27,0.6384 -0.1655,0.1584 -0.3908,0.2527 -0.6378,0.2527 h -4.8213 c -0.2499,0 -0.476,-0.1004 -0.6409,-0.2647 l -10e-4,-10e-4 -10e-4,-0.001 c -0.1643,-0.1651 -0.2646,-0.3912 -0.2646,-0.6409 v -10.2245 c 0,-0.2499 0.1003,-0.476 0.2646,-0.6409 l 10e-4,-0.001 10e-4,-10e-4 c 0.1651,-0.1643 0.3912,-0.2646 0.6409,-0.2646 0.2468,0 0.4721,0.0942 0.6376,0.2526 z"
         style="fill:#1b1918;fill-rule:evenodd"
         id="path4" />
      <path
         d="m 172.8301,358.9147 c 5.0994,0 9.6892,-2.04 13.0676,-5.4184 0.6052,-0.605 1.3938,-0.9077 2.1837,-0.9077 0.7893,0 1.5787,0.3027 2.1837,0.9077 0.605,0.605 0.9076,1.3736 0.9076,2.1497 0,0.7757 -0.3026,1.5443 -0.9076,2.1493 -2.2794,2.2794 -4.9938,4.1119 -8.0091,5.3626 -2.91,1.2074 -6.0922,1.8717 -9.4259,1.8717 -6.8007,0 -12.9508,-2.7505 -17.4007,-7.2001 -4.4499,-4.4499 -7.1996,-10.6003 -7.1996,-17.4007 0,-6.8007 2.75,-12.9509 7.1996,-17.4008 4.4499,-4.4496 10.6,-7.1995 17.4007,-7.1995 3.3213,0 6.5091,0.6756 9.4172,1.8821 3.0381,1.2604 5.7656,3.0995 8.0178,5.3516 l 3e-4,6e-4 -0.003,0.002 0.003,0.002 c 0.6047,0.6051 0.9076,1.371 0.9076,2.1444 0,0.7756 -0.3032,1.5445 -0.9076,2.1487 l -3e-4,5e-4 c -0.605,0.605 -1.3938,0.908 -2.1837,0.908 -0.7902,0 -1.5785,-0.303 -2.1837,-0.908 -1.6954,-1.6954 -3.7385,-3.0741 -6.0084,-4.0152 -2.1724,-0.9006 -4.5604,-1.4032 -7.0592,-1.4032 -5.0994,0 -9.7212,2.0721 -13.0675,5.4184 -3.3463,3.3463 -5.4185,7.9682 -5.4185,13.0676 0,5.0993 2.0722,9.7212 5.4185,13.0675 3.3463,3.3463 7.9681,5.4184 13.0675,5.4184 z m 37.3973,5.4727 c -0.7503,-0.4037 -1.2758,-1.0268 -1.53,-1.7477 -0.2589,-0.7338 -0.2323,-1.5501 0.1251,-2.3252 0.0154,-0.0329 0.0318,-0.0647 0.049,-0.0957 l 20.2022,-42.1109 -0.002,-9e-4 c 0.3829,-0.809 0.9604,-1.3447 1.5822,-1.6953 0.8481,-0.4784 1.7452,-0.5832 2.3012,-0.5832 0.5557,0 1.4525,0.1048 2.3009,0.5832 0.6217,0.3506 1.1993,0.8863 1.5822,1.6953 l 0.0307,0.0701 20.2076,42.1218 0.008,0.017 0.003,-10e-4 c 0.3573,0.7751 0.384,1.5914 0.1253,2.3252 -0.2544,0.7209 -0.7799,1.344 -1.5302,1.7477 -0.0326,0.0172 -0.0649,0.0334 -0.0981,0.0477 -0.7678,0.3471 -1.5701,0.3498 -2.2778,0.0927 -0.7306,-0.2657 -1.352,-0.8131 -1.718,-1.5453 l -0.008,-0.017 -0.002,0.001 -6.334,-13.1204 h -24.5779 l -6.3339,13.1204 c -0.0175,0.0369 -0.0369,0.0725 -0.058,0.1067 -0.3708,0.687 -0.9704,1.1998 -1.6703,1.4545 -0.7155,0.2598 -1.5275,0.2544 -2.3023,-0.1038 z m 22.7273,-40.0168 -9.4151,19.498 h 18.8299 z m 49.6951,-7.3507 c 0.5605,0.5376 0.9025,1.2823 0.9025,2.1393 v 39.2082 h 16.7763 c 0.8376,0 1.5981,0.3161 2.1549,0.8497 0.56,0.5382 0.9023,1.2823 0.9023,2.1393 0,0.8567 -0.3423,1.6018 -0.9023,2.1395 -0.5568,0.5339 -1.3173,0.8494 -2.1549,0.8494 h -19.8334 c -0.8506,0 -1.614,-0.3382 -2.1665,-0.8906 -0.5525,-0.5525 -0.8907,-1.316 -0.8907,-2.1665 v -42.0606 c 0,-0.8505 0.3382,-1.614 0.8907,-2.1665 l 0.003,0.003 c 0.5551,-0.5541 1.3175,-0.8933 2.1638,-0.8933 0.8378,0 1.5983,0.3147 2.1546,0.8494 z m 78.3666,4.3968 -20.5907,20.3226 v 19.8906 c 0,0.8508 -0.3382,1.6143 -0.891,2.1667 -0.5522,0.5525 -1.3157,0.8907 -2.1662,0.8907 -0.8505,0 -1.614,-0.3382 -2.1667,-0.8907 -0.5522,-0.5524 -0.8907,-1.3159 -0.8907,-2.1667 v -19.8906 l -20.5215,-20.2544 c -0.0277,-0.0232 -0.0536,-0.0477 -0.0795,-0.0736 -0.259,-0.2587 -0.4748,-0.5546 -0.6368,-0.8872 -0.0183,-0.0339 -0.0358,-0.0689 -0.0517,-0.1048 -0.1642,-0.3695 -0.2536,-0.767 -0.2536,-1.1917 0,-0.8505 0.3385,-1.614 0.8906,-2.1665 0.5528,-0.5524 1.3163,-0.8906 2.1668,-0.8906 0.5638,0 1.0084,0.0962 1.4865,0.3511 0.3948,0.2102 0.74,0.5021 1.1704,0.9327 l 18.8862,18.6903 18.8175,-18.6229 c 0.0202,-0.0232 0.0415,-0.0455 0.0633,-0.0674 0.4266,-0.4269 0.771,-0.7171 1.1758,-0.9327 0.4784,-0.2549 0.9222,-0.3511 1.4866,-0.3511 0.8508,0 1.6142,0.3382 2.1664,0.8906 0.5528,0.5525 0.8907,1.316 0.8907,2.1665 0,0.3846 -0.0779,0.7524 -0.2204,1.1025 -0.0114,0.0315 -0.0237,0.0631 -0.0378,0.0941 -0.1662,0.374 -0.3994,0.7028 -0.6839,0.9871 l -0.002,-0.002 z m 18.4944,-0.005 c -0.2841,-0.2843 -0.5169,-0.6136 -0.6835,-0.9869 l -0.003,-0.006 -0.002,0.001 c -0.1636,-0.3695 -0.2531,-0.767 -0.2531,-1.1917 0,-0.8505 0.338,-1.614 0.8907,-2.1665 0.5525,-0.5524 1.316,-0.8906 2.1665,-0.8906 0.5638,0 1.0084,0.0962 1.4868,0.3511 0.4045,0.2156 0.7492,0.5058 1.1758,0.9327 0.0216,0.0219 0.0429,0.0442 0.0631,0.0674 l 18.8174,18.6229 18.883,-18.6878 -0.002,-0.002 c 0.4266,-0.4269 0.7715,-0.7171 1.176,-0.9327 0.4784,-0.2555 0.9231,-0.3511 1.4866,-0.3511 0.8508,0 1.6143,0.3382 2.1667,0.8906 0.5525,0.5525 0.8904,1.316 0.8904,2.1665 0,0.4247 -0.0892,0.8222 -0.253,1.1917 -0.0162,0.0359 -0.0334,0.0709 -0.0518,0.1048 -0.1625,0.3323 -0.3778,0.6282 -0.6368,0.8872 -0.0259,0.0259 -0.0528,0.0504 -0.0798,0.0739 l -19.2033,18.9436 19.2723,19.0123 0.008,0.008 0.002,-0.003 c 0.2841,0.2843 0.5169,0.6128 0.6835,0.9866 l 0.003,0.006 0.002,-0.001 c 0.1638,0.3695 0.253,0.767 0.253,1.1917 0,0.8503 -0.3379,1.6143 -0.8904,2.1667 -0.5524,0.5525 -1.3159,0.8907 -2.1667,0.8907 -0.5635,0 -1.0082,-0.0956 -1.4866,-0.3511 -0.4045,-0.2156 -0.7494,-0.5061 -1.176,-0.933 -0.0213,-0.0208 -0.0413,-0.0421 -0.0609,-0.0647 l -18.8197,-18.5604 -18.8829,18.6227 0.002,0.002 c -0.4266,0.4269 -0.7713,0.7174 -1.1758,0.933 -0.4784,0.2552 -0.923,0.3511 -1.4868,0.3511 -0.8505,0 -1.614,-0.3382 -2.1665,-0.8907 -0.5527,-0.5524 -0.8907,-1.3164 -0.8907,-2.1667 0,-0.4247 0.0895,-0.8222 0.2531,-1.1917 0.0159,-0.0353 0.0329,-0.0698 0.0509,-0.1032 0.162,-0.3334 0.3784,-0.6293 0.6377,-0.8885 0.0258,-0.0259 0.0528,-0.0504 0.0797,-0.0739 l 19.2034,-18.9438 -19.2724,-19.0121 -0.008,-0.008 z"
         style="fill:#1b1918;fill-rule:evenodd"
         id="path5" />
    </g>
    <path
       d="m 426.7621,290.8196 v 7.2342 h 1.0078 v -8.9315 h -1.0209 l -3.2538,4.8744 -3.2534,-4.8744 h -1.0202 v 8.9315 h 0.9823 v -7.2217 l 3.2533,4.7721 h 0.051 z m -12.4274,-0.7658 h 2.9985 v -0.9315 h -7.0172 v 0.9315 h 2.998 v 8 h 1.0207 z"
       style="fill:#1b1918;fill-rule:evenodd"
       id="path6" />
  </g>
</svg>
